{"title":"The.Crazies.2010.1080p.BluRay.DTS.x264-LTT","uid":5655088,"size":6698010960,"categoryP":"video","categoryS":"hd___movies","magnet":"?xt=urn:btih:e14b0a0aa61812c5ef333d8f508c5de3fd230649&amp;dn=The.Crazies.2010.1080p.BluRay.DTS.x264-LTT&amp;tr=udp%3A%2F%2Ftracker.openbittorrent.com%3A80&amp;tr=udp%3A%2F%2Fopen.demonii.com%3A1337&amp;tr=udp%3A%2F%2Ftracker.coppersurfer.tk%3A6969&amp;tr=udp%3A%2F%2Fexodus.desync.com%3A6969","seeders":0,"leechers":0,"uploader":"Ltt_01","files":3,"time":1277768867,"description":"The.Crazies.1080p.BluRay.mkv\n****************************\n\nTiTLE......  The Crazies\nYEAR.......  2010\nGENRE......  Mystery | Sci-Fi | Thriller \niMDB RATE..  User Rating: 6.8/10 (12,770 votes)\niMDB URL... &lt;a href=&quot; http://www.imdb.com/title/tt0455407/&quot; rel=&quot;nofollow&quot; target=&quot;_NEW&quot;&gt; http://www.imdb.com/title/tt0455407/&lt;/a&gt;\n*************************************************\n\nVideo\nDuration                         : 1h 40mn \nOverall bit rate                 : 8 865 Kbps\nWidth                            : 1 920 pixels\nHeight                           : 816 pixels\nDisplay aspect ratio             : 2.35:1\nFrame rate                       : 23.976 fps\nStream size                      : 5.05 GiB (81%)\n\nAudio\nFormat                           : DTS\nDuration                         : 1h 40mn\nBit rate mode                    : Constant\nBit rate                         : 1 510 Kbps\nChannel(s)                       : 6 channels\nChannel positions                : Front: L C R, Surround: L R, LFE\nSampling rate                    : 48.0 KHz\nStream size                      : 1.06 GiB (17%)\nLanguage                         : English\n\nSubtitles: English\n******************\n\n\n","torrent":{"xt":"urn:btih:e14b0a0aa61812c5ef333d8f508c5de3fd230649","amp;dn":"The.Crazies.2010.1080p.BluRay.DTS.x264-LTT","amp;tr":["udp%3A%2F%2Ftracker.openbittorrent.com%3A80","udp%3A%2F%2Fopen.demonii.com%3A1337","udp%3A%2F%2Ftracker.coppersurfer.tk%3A6969","udp%3A%2F%2Fexodus.desync.com%3A6969"],"infoHash":"e14b0a0aa61812c5ef333d8f508c5de3fd230649","infoHashBuffer":{"type":"Buffer","data":[225,75,10,10,166,24,18,197,239,51,61,143,80,140,93,227,253,35,6,73]},"announce":[],"urlList":[]}}